ffmpeg version 3.4.8-0ubuntu0.2 Copyright (c) 2000-2020 the FFmpeg developers
  built with gcc 7 (Ubuntu 7.5.0-3ubuntu1~18.04)
  configuration: --prefix=/usr --extra-version=0ubuntu0.2 --toolchain=hardened --libdir=/usr/lib/x86_64-linux-gnu --incdir=/usr/include/x86_64-linux-gnu --enable-gpl --disable-stripping --enable-avresample --enable-avisynth --enable-gnutls --enable-ladspa --enable-libass --enable-libbluray --enable-libbs2b --enable-libcaca --enable-libcdio --enable-libflite --enable-libfontconfig --enable-libfreetype --enable-libfribidi --enable-libgme --enable-libgsm --enable-libmp3lame --enable-libmysofa --enable-libopenjpeg --enable-libopenmpt --enable-libopus --enable-libpulse --enable-librubberband --enable-librsvg --enable-libshine --enable-libsnappy --enable-libsoxr --enable-libspeex --enable-libssh --enable-libtheora --enable-libtwolame --enable-libvorbis --enable-libvpx --enable-libwavpack --enable-libwebp --enable-libx265 --enable-libxml2 --enable-libxvid --enable-libzmq --enable-libzvbi --enable-omx --enable-openal --enable-opengl --enable-sdl2 --enable-libdc1394 --enable-libdrm --enable-libiec61883 --enable-chromaprint --enable-frei0r --enable-libopencv --enable-libx264 --enable-shared
  libavutil      55. 78.100 / 55. 78.100
  libavcodec     57.107.100 / 57.107.100
  libavformat    57. 83.100 / 57. 83.100
  libavdevice    57. 10.100 / 57. 10.100
  libavfilter     6.107.100 /  6.107.100
  libavresample   3.  7.  0 /  3.  7.  0
  libswscale      4.  8.100 /  4.  8.100
  libswresample   2.  9.100 /  2.  9.100
  libpostproc    54.  7.100 / 54.  7.100
[rawvideo @ 0x55f0a5084a20] Estimating duration from bitrate, this may be inaccurate
Input #0, rawvideo, from '../../SVC-Encoder-20220109T061506Z-001/SVC-Encoder/Dataset/RollerCoaster/6f_2x2/tile_yuv/f1_t2_480x480.yuv':
  Duration: 00:00:10.00, start: 0.000000, bitrate: 82944 kb/s
    Stream #0:0: Video: rawvideo (I420 / 0x30323449), yuv420p, 480x480, 82944 kb/s, 30 tbr, 30 tbn, 30 tbc
Stream mapping:
  Stream #0:0 -> #0:0 (rawvideo (native) -> h264 (libx264))
Press [q] to stop, [?] for help
[libx264 @ 0x55f0a5091c60] using cpu capabilities: MMX2 SSE2Fast LZCNT SSSE3 SSE4.2 AVX
[libx264 @ 0x55f0a5091c60] profile High, level 3.0
Output #0, rawvideo, to 'RollerCoaster_f1_t2_480x480_x264_QP_36.h264':
  Metadata:
    encoder         : Lavf57.83.100
    Stream #0:0: Video: h264 (libx264), yuv420p, 480x480, q=-1--1, 30 fps, 30 tbn, 30 tbc
    Metadata:
      encoder         : Lavc57.107.100 libx264
    Side data:
      cpb: bitrate max/min/avg: 0/0/0 buffer size: 0 vbv_delay: -1
frame=  121 fps=0.0 q=42.0 PSNR=Y:nan U:nan V:nan *:nan size=      70kB time=00:00:02.60 bitrate= 219.8kbits/s speed=5.19x    frame=  209 fps=208 q=42.0 PSNR=Y:nan U:nan V:nan *:nan size=     130kB time=00:00:05.53 bitrate= 193.2kbits/s speed=5.51x    frame=  298 fps=197 q=42.0 PSNR=Y:nan U:nan V:nan *:nan size=     212kB time=00:00:08.50 bitrate= 204.1kbits/s speed=5.63x    frame=  300 fps=177 q=42.0 LPSNR=Y:inf U:inf V:inf *:inf size=     237kB time=00:00:09.93 bitrate= 195.2kbits/s speed=5.86x    
video:237kB audio:0kB subtitle:0kB other streams:0kB global headers:0kB muxing overhead: 0.000000%
[libx264 @ 0x55f0a5091c60] frame I:2     Avg QP:34.22  size: 13306  PSNR Mean Y:33.81 U:41.57 V:42.45 Avg:35.25 Global:35.21
[libx264 @ 0x55f0a5091c60] frame P:76    Avg QP:36.40  size:  1799  PSNR Mean Y:32.39 U:41.60 V:42.07 Avg:33.91 Global:33.89
[libx264 @ 0x55f0a5091c60] frame B:222   Avg QP:41.50  size:   356  PSNR Mean Y:32.01 U:41.49 V:41.92 Avg:33.54 Global:33.53
[libx264 @ 0x55f0a5091c60] consecutive B-frames:  1.3%  0.0%  0.0% 98.7%
[libx264 @ 0x55f0a5091c60] mb I  I16..4: 16.9% 65.9% 17.2%
[libx264 @ 0x55f0a5091c60] mb P  I16..4:  0.9%  1.8%  0.2%  P16..4: 39.2%  9.3%  2.6%  0.0%  0.0%    skip:46.0%
[libx264 @ 0x55f0a5091c60] mb B  I16..4:  0.1%  0.1%  0.0%  B16..8: 26.7%  1.0%  0.1%  direct: 0.1%  skip:72.0%  L0:36.4% L1:62.8% BI: 0.8%
[libx264 @ 0x55f0a5091c60] 8x8 transform intra:63.8% inter:79.6%
[libx264 @ 0x55f0a5091c60] coded y,uvDC,uvAC intra: 51.1% 56.9% 10.3% inter: 3.5% 2.1% 0.0%
[libx264 @ 0x55f0a5091c60] i16 v,h,dc,p: 28% 17% 32% 23%
[libx264 @ 0x55f0a5091c60] i8 v,h,dc,ddl,ddr,vr,hd,vl,hu: 12% 12% 25% 12%  6%  9%  6%  7% 11%
[libx264 @ 0x55f0a5091c60] i4 v,h,dc,ddl,ddr,vr,hd,vl,hu: 26% 15% 18% 10%  6%  6%  5%  9%  5%
[libx264 @ 0x55f0a5091c60] i8c dc,h,v,p: 64% 10% 16% 10%
[libx264 @ 0x55f0a5091c60] Weighted P-Frames: Y:0.0% UV:0.0%
[libx264 @ 0x55f0a5091c60] ref P L0: 58.1% 16.3% 18.7%  6.8%
[libx264 @ 0x55f0a5091c60] ref B L0: 82.6% 14.7%  2.7%
[libx264 @ 0x55f0a5091c60] ref B L1: 84.0% 16.0%
[libx264 @ 0x55f0a5091c60] PSNR Mean Y:32.119 U:41.517 V:41.963 Avg:33.648 Global:33.629 kb/s:193.93
